<?xml version="1.0" encoding="UTF-8"?>
<svg id="Layer_2" data-name="Layer 2" xmlns="http://www.w3.org/2000/svg" viewBox="0 0 521.58 521.58">
  <defs>
    <style>
      .cls-1, .cls-2, .cls-3 {
        stroke-width: 0px;
      }

      .cls-2 {
        fill: #fff;
      }

      .cls-3 {
        fill: #3cb54a;
      }
    </style>
  </defs>
  <g id="Layer_1-2" data-name="Layer 1">
    <circle class="cls-1" cx="260.79" cy="260.79" r="260.79"/>
    <path class="cls-3" d="m358.18,70.51c-106.73,99.06-204.45,209.88-290.29,332.03,97.14-92.06,193.96-202.17,290.29-332.03Z"/>
    <path class="cls-2" d="m157.89,271.63c-25.54,0-44.94-5.31-61.49-21.69l21.29-20.76c10.64,10.38,25.07,13.84,40.68,13.84,19.39,0,29.8-7.15,29.8-20.3,0-5.77-1.65-10.61-5.2-13.84-3.31-3-7.1-4.61-14.9-5.77l-20.34-2.77c-14.43-2.08-25.07-6.46-32.64-13.61-8.04-7.84-12.06-18.46-12.06-32.3,0-29.3,22.23-49.84,58.66-49.84,23.18,0,39.97,5.54,54.4,19.15l-20.82,20.07c-10.64-9.92-23.41-11.31-34.53-11.31-17.5,0-26.02,9.46-26.02,20.76,0,4.15,1.42,8.54,4.97,11.77,3.31,3,8.75,5.54,15.61,6.46l19.87,2.77c15.37,2.08,25.07,6.23,32.17,12.69,8.99,8.31,13.01,20.3,13.01,34.84,0,31.84-27.2,49.84-62.44,49.84Z"/>
    <path class="cls-2" d="m346.8,93.28l-87.91,110.68c27.3,13.78,23.04,47.33-6.32,55.66h-42.37s-35.42,39.84-35.42,39.84v41.11h31.62v-52.49l32.25-.63,37.31,53.13h37.95l-42.37-56.92c36.82-10.99,51.14-66.32,14.55-95.54l60.71-94.83Z"/>
    <path class="cls-2" d="m326.61,340.97v-29.36l58.47-49.94c11.04-9.54,17.82-17.57,17.82-27.1,0-12.05-8.53-20.58-21.58-20.58-11.04,0-21.83,6.52-21.83,22.08h-32.62c0-32.12,24.34-51.45,54.46-51.45s54.21,19.57,54.21,49.44c0,19.32-13.8,32.62-31.87,48.69l-32.37,28.86h67.51v29.36h-112.18Z"/>
    <g>
      <path class="cls-3" d="m139.7,375.53c-1.23-1.23-2.27-1.9-4.23-1.9-2.46,0-5.16,1.84-5.16,5.89v19.27h-7.98v-31.97h7.79v3.07c1.53-1.84,4.6-3.44,8.04-3.44,3.13,0,5.34.8,7.55,3.01l-6.01,6.08Z"/>
      <path class="cls-3" d="m154.61,385.29c0,4.11,2.52,7.12,7,7.12,3.5,0,5.22-.98,7.24-3.01l4.85,4.73c-3.25,3.25-6.38,5.03-12.15,5.03-7.55,0-14.79-3.44-14.79-16.39,0-10.43,5.65-16.32,13.93-16.32,8.9,0,13.93,6.51,13.93,15.28v3.56h-20.01Zm11.42-8.9c-.86-1.9-2.64-3.31-5.34-3.31s-4.48,1.41-5.34,3.31c-.49,1.17-.68,2.03-.74,3.44h12.15c-.06-1.41-.25-2.27-.74-3.44Z"/>
      <path class="cls-3" d="m200.58,398.79v-19.33c0-4.36-2.76-5.83-5.28-5.83s-5.34,1.47-5.34,5.83v19.33h-7.98v-31.97h7.79v2.95c2.09-2.21,5.03-3.31,7.98-3.31,3.19,0,5.77,1.04,7.55,2.82,2.58,2.58,3.25,5.58,3.25,9.08v20.44h-7.98Z"/>
      <path class="cls-3" d="m223.4,385.29c0,4.11,2.52,7.12,7,7.12,3.5,0,5.22-.98,7.24-3.01l4.85,4.73c-3.25,3.25-6.38,5.03-12.15,5.03-7.55,0-14.79-3.44-14.79-16.39,0-10.43,5.65-16.32,13.93-16.32,8.9,0,13.93,6.51,13.93,15.28v3.56h-20.01Zm11.42-8.9c-.86-1.9-2.64-3.31-5.34-3.31s-4.48,1.41-5.34,3.31c-.49,1.17-.68,2.03-.74,3.44h12.15c-.06-1.41-.25-2.27-.74-3.44Z"/>
      <path class="cls-3" d="m282.38,398.79h-6.57l-6.69-20.07-6.69,20.07h-6.57l-9.82-31.97h8.47l5.16,19.76,6.51-19.76h5.83l6.57,19.76,5.15-19.76h8.41l-9.76,31.97Z"/>
      <path class="cls-3" d="m313.25,398.79v-2.76c-2.15,2.15-4.17,3.07-7.86,3.07s-6.26-.92-8.16-2.82c-1.72-1.78-2.64-4.36-2.64-7.18,0-5.09,3.5-9.27,10.92-9.27h7.55v-1.6c0-3.5-1.72-5.03-5.95-5.03-3.07,0-4.48.74-6.14,2.64l-5.1-4.97c3.13-3.44,6.2-4.42,11.54-4.42,8.96,0,13.62,3.81,13.62,11.29v21.05h-7.79Zm-.18-13.5h-6.32c-2.88,0-4.48,1.35-4.48,3.62s1.47,3.68,4.6,3.68c2.21,0,3.62-.18,5.03-1.53.86-.8,1.17-2.09,1.17-4.05v-1.72Z"/>
      <path class="cls-3" d="m353.13,396.28c-1.78,1.78-4.66,2.88-7.79,2.88-3.38,0-5.77-.92-7.98-3.38v3.01h-7.73v-43.7h7.98v14.54c2.09-2.33,4.48-3.19,7.73-3.19s6.01,1.11,7.79,2.88c3.19,3.19,3.25,8.65,3.25,13.44s-.06,10.31-3.25,13.5Zm-10.12-22.65c-4.79,0-5.4,3.93-5.4,9.14s.61,9.21,5.4,9.21,5.4-3.99,5.4-9.21-.61-9.14-5.4-9.14Z"/>
      <path class="cls-3" d="m373.01,398.79c-6.57,0-9.33-4.6-9.33-9.14v-34.55h7.98v34.06c0,1.9.8,2.88,2.82,2.88h3.07v6.75h-4.54Z"/>
      <path class="cls-3" d="m388.66,385.29c0,4.11,2.52,7.12,7,7.12,3.5,0,5.22-.98,7.24-3.01l4.85,4.73c-3.25,3.25-6.38,5.03-12.15,5.03-7.55,0-14.79-3.44-14.79-16.39,0-10.43,5.65-16.32,13.93-16.32,8.9,0,13.93,6.51,13.93,15.28v3.56h-20.01Zm11.42-8.9c-.86-1.9-2.64-3.31-5.34-3.31s-4.48,1.41-5.34,3.31c-.49,1.17-.68,2.03-.74,3.44h12.15c-.06-1.41-.25-2.27-.74-3.44Z"/>
      <path class="cls-3" d="m426.53,399.16c-5.03,0-9.57-.55-13.62-4.6l5.21-5.22c2.64,2.64,6.08,3.01,8.53,3.01,2.76,0,5.65-.92,5.65-3.31,0-1.6-.86-2.7-3.37-2.95l-5.03-.49c-5.77-.55-9.33-3.07-9.33-8.96,0-6.63,5.83-10.19,12.33-10.19,4.97,0,9.14.86,12.21,3.74l-4.91,4.97c-1.84-1.66-4.67-2.15-7.42-2.15-3.19,0-4.54,1.47-4.54,3.07,0,1.17.49,2.52,3.31,2.76l5.03.49c6.32.61,9.51,3.99,9.51,9.39,0,7.06-6.02,10.43-13.56,10.43Z"/>
    </g>
  </g>
</svg>