<?xml version="1.0" standalone="yes"?>
<svg xmlns="http://www.w3.org/2000/svg" width="472" height="421">
<path style="fill:#ffffff; stroke:none;" d="M0 0L0 419C6.43607 413.283 10.7939 404.918 15.8843 398C26.4137 383.691 36.7132 369.214 47.3735 355C64.335 332.385 81.7405 310.075 99.3997 288C108.162 277.047 118.091 266.566 126 255C101.908 255 76.3124 255.062 55 241.935C50.642 239.251 38.0556 232.906 38.0556 227C38.0556 223.518 42.7142 220.732 45 218.715C51.3373 213.12 58.1284 206.916 63 200C80.429 216.004 106.034 221.056 129 216.739C144.714 213.786 156.655 200.576 150.891 184C145.593 168.765 127.389 168.479 114 166.718C90.6882 163.653 64.8262 159.236 51.8765 137C39.5744 115.876 42.488 85.5164 58.3009 67C67.7581 55.926 81.0017 48.9578 95 45.4753C117.142 39.9669 144.179 41.8593 165 51.3125C173.874 55.3415 180.963 61.6888 189 67C182.782 73.2183 176.526 79.2814 170 85.1698C167.753 87.1971 165.155 90.8414 162 91.409C159.416 91.8738 156.997 89.6492 155 88.3542C151.509 86.0908 147.93 84.2496 144 82.865C132.013 78.6411 116.229 76.9581 104 81.1042C87.0039 86.8668 77.6119 110.307 95.0039 121.892C103.355 127.455 114.356 127.881 124 129.271C145.737 132.403 170.426 135.132 183.906 155C188.463 161.716 190.808 169.277 193 177C205.588 165.362 216.408 151.541 228.09 139C249.928 115.556 272.336 92.6639 295 70C311.515 53.4853 328.399 37.4078 345 21.0038C352.031 14.0566 360.264 8.14343 366 0L0 0z"/>
<path style="fill:#3bb54a; stroke:none;" d="M0 421C10.4178 414.978 18.4456 404.359 27 396.015C45.2369 378.225 62.9953 360.012 81 342C151.199 271.774 216.175 195.528 278.2 118C299.078 91.9029 319.614 65.5696 339.884 39C345.98 31.0098 352.096 23.0411 358.127 15C361.712 10.2193 365.842 5.61118 368 0C361.613 2.97842 357.231 9.10059 352 13.7145C338.563 25.5662 325.672 38.3282 313 51C286.96 77.0397 261.391 103.405 235.961 130C227.142 139.222 218.582 148.643 209.911 158C204.964 163.338 198.553 168.783 194.743 175C191.227 180.738 194.533 190.403 193.826 197C192.523 209.171 187.459 220.733 179.561 229.996C170.071 241.126 156.617 247.104 143 251.481C137.423 253.273 129.71 252.656 125.039 256.318C120.753 259.679 117.4 264.784 114 269L96.1998 291C75.9885 316.263 56.3094 341.96 37.1157 368C28.7892 379.297 20.4379 390.572 12.2909 402C8.01516 407.998 2.65229 414.105 0 421z"/>
<path style="fill:#ffffff; stroke:none;" d="M1 420C5.21513 421.769 10.4645 421 15 421L42 421L138 421L472 421L472 407C470.139 409.266 468.406 411.632 465.981 413.348C456.673 419.936 446.292 415.375 437 412C438.487 408.817 440.908 404.677 445 404.812C448.169 404.917 459.019 410.395 460.079 403.83C460.47 401.406 457.818 400.492 455.981 400.109C450.504 398.965 444.29 399.063 440.742 393.895C435.719 386.577 441.681 377.606 449 375.225C456.89 372.657 464.017 375.346 471 379C468.977 380.981 466.853 383.612 463.998 384.38C461.316 385.101 450.636 381.714 450.636 386.92C450.636 389.569 454.129 389.792 456.005 390.046C462.593 390.937 466.993 392.449 471 398C472.552 394.301 472 389.983 472 386L472 363L472 282L472 0L400 0L379 0C376.026 0 372.116 -0.626648 369.325 0.603394C365.5 2.28903 362.789 7.77933 360.373 11C353.845 19.7049 347.292 28.3816 340.651 37C316.608 68.2039 292.434 99.2552 267.8 130C208.241 204.333 144.924 276.274 78.0039 344C60.758 361.453 43.5682 378.877 26 396.015C17.7769 404.036 10.1542 413.025 1 420z"/>
<path style="fill:#000002; stroke:none;" d="M353 28C327.093 60.1393 301.645 92.6551 275.997 125C268.056 135.014 259.917 144.874 252.119 155C248.437 159.781 243.95 164.218 242 170C260.934 180.554 272.046 202.681 258.211 222C255.673 225.544 252.491 228.641 249 231.239C234.287 242.187 215.318 239 198 239C192.849 239 185.888 237.798 181 239.603C173.453 242.39 167.192 253.194 161.925 259C156.227 265.282 150.717 271.735 145 278C141.816 281.49 137.249 285.477 135.603 290C133.815 294.912 135 301.831 135 307L135 342L176 342L176 276C183.927 276 192.107 276.581 200 275.83C204.591 275.393 210.577 273.69 214.91 276.028C219.844 278.69 222.989 285.573 226.141 290C234.647 301.944 242.955 314.03 251.424 326C254.677 330.597 258.141 338.153 263.174 340.972C267.117 343.181 273.628 342 278 342L312 342C308.912 334.696 302.897 328.433 298.29 322C285.807 304.57 271.337 288.204 260 270C297.105 257.366 313.369 212.295 298.985 177C294.98 167.172 287.931 154.632 278 150C282.267 138.741 291.1 128.094 297.657 118C309.935 99.0977 321.976 80.0317 334.053 61C338.934 53.3094 344.01 45.7441 348.808 38C350.74 34.8807 353.543 31.7425 353 28M64 200C56.2057 205.49 50.1717 213.3 43.0008 219.576C40.7124 221.578 36.4368 224.4 37.3457 227.996C38.1923 231.346 42.409 233.931 45 235.844C53.076 241.808 61.4693 246.192 71 249.329C105.902 260.817 155.181 258.28 180.815 229C200.228 206.826 198.188 161.777 174 143.924C158.687 132.623 139.191 131.35 121 128.729C104.988 126.422 82.5057 121.376 86.3295 100C90.78 75.1206 126.334 76.6284 144 83.2292C148.931 85.0717 156.926 92.8244 162 92.0934C165.561 91.5803 168.499 87.4279 171 85.1698C177.175 79.5955 183.115 73.8854 189 68C177.906 52.9379 155.787 45.9745 138 43.8449C101.273 39.4476 55.1275 48.9081 46.0147 91C44.8752 96.2629 43.8042 102.619 44.1844 108C44.7308 115.732 45.6176 123.726 48.4637 131C56.7435 152.161 77.9002 161.468 99 164.725C115.102 167.211 140.598 165.484 149.583 182C158.061 197.586 145.147 212.923 130 216.335C107.219 221.466 81.2899 215.876 64 200M328 210L370 210C370.659 194.886 382.045 181.782 398 182.26C413.652 182.729 427.674 198.28 422.779 214C418.869 226.559 407.609 235.858 398 244.13C381.72 258.147 365.268 271.967 349 286C342.68 291.452 331.882 297.495 328.028 305.015C326.257 308.47 327 313.242 327 317L327 343L470 343L470 305L386 305C395.509 297.756 404.085 289.126 413 281.166C423.393 271.886 434.248 262.978 443.985 253C451.612 245.185 458.773 236.238 462.796 226C465.516 219.078 466.003 212.356 466 205C465.997 198.363 465.125 192.308 462.996 186C445.273 133.49 361.316 129.372 335.312 177C329.659 187.354 328 198.379 328 210z"/>
<path style="fill:#01231e; stroke:none;" d="M192.333 178.667C192.278 178.722 192.222 179.778 192.667 179.333C192.722 179.278 192.778 178.222 192.333 178.667z"/>
<path style="fill:#277c42; stroke:none;" d="M193 182L193 186C193.71 184.24 193.71 183.76 193 182z"/>
<path style="fill:#164d34; stroke:none;" d="M193 186L193 197C194.431 193.59 194.431 189.41 193 186z"/>
<path style="fill:#277c42; stroke:none;" d="M193 197L193 200C193.696 198.446 193.696 198.554 193 197z"/>
<path style="fill:#072e25; stroke:none;" d="M192 201L192 204C192.696 202.446 192.696 202.554 192 201z"/>
<path style="fill:#21633c; stroke:none;" d="M191.333 207.667C191.278 207.722 191.222 208.778 191.667 208.333C191.722 208.278 191.778 207.222 191.333 207.667M189 214L190 215L189 214z"/>
<path style="fill:#164d34; stroke:none;" d="M188 216L189 217L188 216M187 218L188 219L187 218M186 220L187 221L186 220z"/>
<path style="fill:#256f3e; stroke:none;" d="M185 222L186 223L185 222M183 225L184 226L183 225z"/>
<path style="fill:#21633c; stroke:none;" d="M179 230L180 231L179 230M178 231L179 232L178 231M177 232L178 233L177 232M176 233L177 234L176 233M175 234L176 235L175 234M174 235L175 236L174 235z"/>
<path style="fill:#12422f; stroke:none;" d="M170 238L171 239L170 238z"/>
<path style="fill:#256f3e; stroke:none;" d="M169 239L170 240L169 239M166 241L167 242L166 241z"/>
<path style="fill:#12422f; stroke:none;" d="M164 242L165 243L164 242M154 247L155 248L154 247z"/>
<path style="fill:#21633c; stroke:none;" d="M152 248L153 249L152 248z"/>
<path style="fill:#277c42; stroke:none;" d="M142.667 251.333C142.222 251.778 143.278 251.722 143.333 251.667C143.778 251.222 142.722 251.278 142.667 251.333z"/>
<path style="fill:#1b5838; stroke:none;" d="M137 252C138.248 252.685 138.549 252.749 140 253C138.752 252.315 138.452 252.251 137 252z"/>
<path style="fill:#072e25; stroke:none;" d="M130 253C131.248 253.685 131.549 253.749 133 254C131.752 253.315 131.452 253.251 130 253z"/>
<path style="fill:#2e8845; stroke:none;" d="M133.667 253.333C133.222 253.778 134.278 253.722 134.333 253.667C134.778 253.222 133.722 253.278 133.667 253.333z"/>
<path style="fill:#000002; stroke:none;" d="M331 360L331 416C334.706 416 339.421 416.951 342 414C344.564 415.287 347.1 416.365 350 416.66C363.75 418.055 366.001 405.539 366 395C365.999 384.439 363.371 372.89 350 374.2C347.064 374.487 344.568 375.654 342 377L342 360L331 360M374 360L374 397C374 402.243 373.431 408.515 377.419 412.606C381.474 416.765 387.711 416 393 416L393 407C384.703 406.068 385 399.983 385 393L385 360L374 360M81 377C77.3703 374.458 73.3084 375 69 375L69 416L80 416C80 408.286 78.3633 398.455 80.4336 391.004C82.0105 385.329 86.4093 384.439 91 387C93.5514 385.196 98.6115 381.965 98.0787 378.225C97.0969 371.332 84.3088 374.538 81 377M135 411C133.757 408.347 132.133 405.262 128.995 404.446C126.17 403.711 123.673 406.063 121 406.538C115.735 407.473 112.517 403.422 111 399L136 399C136 392.231 136.187 385.586 131.606 380.044C124.279 371.178 109.046 372.374 102.995 382.004C96.9412 391.636 98.5784 410.076 110.001 415.005C118.783 418.796 127.466 415.964 135 411M155 377C152.421 374.049 147.706 375 144 375L144 416L155 416C155 408.312 153.829 399.534 155.483 392.001C156.159 388.924 158.168 384.74 161.989 385.176C165.289 385.553 167.236 389.077 167.772 392.001C169.159 399.575 168 408.304 168 416L179 416C179 402.892 184.6 371.609 163 374.192C160.12 374.537 157.594 375.79 155 377M222 411C220.757 408.347 219.133 405.262 215.995 404.446C213.17 403.711 210.673 406.063 208 406.538C202.735 407.473 199.517 403.422 198 399L223 399C223 392.811 223.361 386.284 219.49 381.015C212.467 371.456 196.305 371.805 190.005 382.005C184.019 391.697 185.552 410.064 197.001 415.005C205.783 418.796 214.466 415.964 222 411M310 391C303.966 391 296.34 389.969 291.214 393.879C285.03 398.596 285.73 409.999 292.055 414.258C297.754 418.097 305.211 416.501 311 414C313.431 416.782 317.491 416 321 416L321 391C320.992 386.477 321.039 381.835 317.606 378.394C312.734 373.513 303.319 373.145 297 374.684C294.076 375.397 289.449 377.211 289.921 381.011C290.33 384.303 293.919 386.554 297 385.972C303.1 384.82 308.687 382.699 310 391M425 403C417.562 406.892 410.341 408.74 407 399L432 399C432 394.38 432.494 389.414 430.867 385.001C426.661 373.598 411.081 370.665 402.105 378.394C393.459 385.838 393.418 405.169 402.105 412.606C407.722 417.414 416.259 417.55 423 415.481C425.475 414.722 429.773 413.085 429.795 409.907C429.813 407.162 426.703 404.767 425 403M437 412C445.164 416.272 453.925 418.436 463 415.362C470.25 412.906 474.494 404.131 470.821 397.015C468.05 391.647 462.403 390.768 457.001 390.046C455.186 389.803 451.207 389.566 451.207 386.92C451.207 384.637 454.323 384.156 456.005 384.102C463.237 383.87 465.156 385.637 471 380C461.256 368.672 432.172 374.282 439.742 392.957C442.246 399.135 449.513 398.987 454.995 400.109C456.783 400.475 459.811 401.372 459.369 403.83C458.673 407.703 452.497 406.883 450 406.01C443.385 403.699 439.131 404.412 437 412M225 375C227.914 383.96 230.48 393.026 233.344 402C234.487 405.582 235.172 410.569 237.303 413.682C239.255 416.534 244.741 416.851 247.157 414.397C249.561 411.953 250.28 407.16 251.333 404L255 393C257.151 397.852 258.645 402.97 260.333 408C261.089 410.252 261.685 413.459 263.702 414.972C266.042 416.727 270.253 416 273 416C275.884 402.063 281.795 388.852 285 375C281.849 375 276.368 373.974 273.728 376.028C269.359 379.426 269.18 390.933 267 396C264.057 389.361 261.637 382.077 260 375C257.401 375.002 253.764 374.444 251.51 376.028C246.973 379.216 244.771 391.777 244 397C241.785 392.588 240.756 387.747 239.424 383C238.793 380.748 238.464 377.526 236.436 376.028C233.682 373.993 228.242 375 225 375z"/>
<path style="fill:#ffffff; stroke:none;" d="M111 391L125 391C122.482 382.729 112.895 381.835 111 391M198 391L212 391C210.184 382.218 199.816 382.218 198 391M347.108 384.851C338.943 387.349 340.622 409.543 350.867 405.392C357.933 402.529 356.362 382.02 347.108 384.851M407 391L421 391C419.109 381.855 409.768 382.953 407 391M310 399C308.017 399 305.976 398.88 304 399.059C291.85 400.158 304.877 412.83 309.258 403.796C309.981 402.305 309.911 400.603 310 399z"/>
</svg>
